#N canvas 475 343 884 572 10;
#X obj 65 40 dumpOSC 12000;
#X obj 61 69 route /msg;
#X obj 69 140 unpack i f;
#X floatatom 70 185 5 0 0 0 - - -;
#X floatatom 125 185 5 0 0 0 - - -;
#X obj 66 252 sel 1;
#X obj 68 272 bng 15 250 50 0 empty empty empty 17 7 0 10 -262144 -1
-1;
#X obj 104 265 f;
#X floatatom 97 304 5 0 0 0 - - -;
#X obj 91 323 osc~;
#X obj 89 382 *~;
#X obj 159 511 dac~;
#X obj 60 350 ead~ 15 500;
#X obj 153 279 bng 15 250 50 0 empty empty empty 17 7 0 10 -262144
-1 -1;
#X obj 189 261 f;
#X floatatom 182 311 5 0 0 0 - - -;
#X obj 176 330 osc~;
#X obj 174 389 *~;
#X obj 145 357 ead~ 15 500;
#X obj 238 275 bng 15 250 50 0 empty empty empty 17 7 0 10 -262144
-1 -1;
#X obj 274 255 f;
#X floatatom 267 307 5 0 0 0 - - -;
#X obj 261 326 osc~;
#X obj 259 385 *~;
#X obj 230 353 ead~ 15 500;
#X obj 324 270 bng 15 250 50 0 empty empty empty 17 7 0 10 -262144
-1 -1;
#X obj 360 250 f;
#X floatatom 353 302 5 0 0 0 - - -;
#X obj 347 321 osc~;
#X obj 345 380 *~;
#X obj 316 348 ead~ 15 500;
#X obj 151 259 sel 2;
#X obj 236 255 sel 3;
#X obj 322 250 sel 4;
#X obj 146 444 +~;
#X obj 227 451 +~;
#X connect 0 0 1 0;
#X connect 1 0 2 0;
#X connect 2 0 3 0;
#X connect 2 1 4 0;
#X connect 3 0 5 0;
#X connect 3 0 31 0;
#X connect 3 0 32 0;
#X connect 3 0 33 0;
#X connect 4 0 7 1;
#X connect 4 0 14 1;
#X connect 4 0 20 1;
#X connect 4 0 26 1;
#X connect 5 0 6 0;
#X connect 6 0 7 0;
#X connect 6 0 12 0;
#X connect 7 0 8 0;
#X connect 8 0 9 0;
#X connect 9 0 10 0;
#X connect 10 0 34 0;
#X connect 12 0 10 1;
#X connect 13 0 14 0;
#X connect 13 0 18 0;
#X connect 14 0 15 0;
#X connect 15 0 16 0;
#X connect 16 0 17 0;
#X connect 17 0 34 1;
#X connect 18 0 17 1;
#X connect 19 0 20 0;
#X connect 19 0 24 0;
#X connect 20 0 21 0;
#X connect 21 0 22 0;
#X connect 22 0 23 0;
#X connect 23 0 35 0;
#X connect 24 0 23 1;
#X connect 25 0 26 0;
#X connect 25 0 30 0;
#X connect 26 0 27 0;
#X connect 27 0 28 0;
#X connect 28 0 29 0;
#X connect 29 0 35 1;
#X connect 30 0 29 1;
#X connect 31 0 13 0;
#X connect 32 0 19 0;
#X connect 33 0 25 0;
#X connect 34 0 11 0;
#X connect 35 0 11 1;
