#N canvas 485 228 1060 436 10;
#X obj 33 62 route /msg;
#X obj 28 128 route A;
#X obj 84 128 route B;
#X obj 137 128 route C;
#X obj 193 128 route D;
#X obj 270 130 route E;
#X obj 323 130 route F;
#X obj 377 130 route G;
#X obj 433 130 route H;
#X obj 518 124 route I;
#X obj 574 124 route J;
#X obj 627 124 route K;
#X obj 683 124 route L;
#X obj 839 122 route M;
#X obj 896 122 route N;
#X obj 948 122 route O;
#X obj 1004 122 route P;
#X obj 52 331 +~;
#X obj 163 334 +~;
#X obj 123 356 +~;
#X obj 657 336 +~;
#X obj 732 337 +~;
#X obj 698 379 +~;
#X obj 1060 740 +~;
#X obj 1135 741 +~;
#X obj 1101 783 +~;
#X obj 1374 732 +~;
#X obj 1449 733 +~;
#X obj 1415 775 +~;
#X obj 161 474 +~;
#X obj 392 468 +~;
#X obj 245 478 +~;
#X obj 313 476 +~;
#X obj 379 504 +~;
#X obj 239 509 +~;
#X obj 300 665 *~ 0.3;
#X obj 348 667 *~ 0.3;
#X floatatom 831 30 5 0 0 0 - - -;
#X text 866 31 main pitch;
#X obj 16 175 unpack f f;
#X floatatom 15 202 5 0 0 0 - - -;
#X floatatom 69 203 5 0 0 0 - - -;
#X obj 11 246 *;
#X obj 9 221 r pit;
#X obj 53 246 *;
#X obj 50 222 r dur;
#X obj 629 79 s pit;
#X obj 666 78 s dur;
#X floatatom 832 48 5 0 0 0 - - -;
#X text 867 49 main duration;
#X obj 2 273 soundGen;
#X obj 60 292 r lopass;
#X obj 60 269 r attack;
#X obj 133 177 unpack f f;
#X floatatom 132 204 5 0 0 0 - - -;
#X floatatom 186 205 5 0 0 0 - - -;
#X obj 128 248 *;
#X obj 126 223 r pit;
#X obj 170 248 *;
#X obj 167 224 r dur;
#X obj 119 275 soundGen;
#X obj 177 294 r lopass;
#X obj 177 271 r attack;
#X obj 252 177 unpack f f;
#X floatatom 251 204 5 0 0 0 - - -;
#X floatatom 305 205 5 0 0 0 - - -;
#X obj 247 248 *;
#X obj 245 223 r pit;
#X obj 289 248 *;
#X obj 286 224 r dur;
#X obj 238 275 soundGen;
#X obj 296 294 r lopass;
#X obj 296 271 r attack;
#X obj 367 174 unpack f f;
#X floatatom 366 201 5 0 0 0 - - -;
#X floatatom 420 202 5 0 0 0 - - -;
#X obj 362 245 *;
#X obj 360 220 r pit;
#X obj 404 245 *;
#X obj 401 221 r dur;
#X obj 353 272 soundGen;
#X obj 411 291 r lopass;
#X obj 411 268 r attack;
#X obj 517 171 unpack f f;
#X floatatom 516 198 5 0 0 0 - - -;
#X floatatom 570 199 5 0 0 0 - - -;
#X obj 512 242 *;
#X obj 510 217 r pit;
#X obj 554 242 *;
#X obj 551 218 r dur;
#X obj 503 269 soundGen;
#X obj 561 288 r lopass;
#X obj 561 265 r attack;
#X obj 634 173 unpack f f;
#X floatatom 633 200 5 0 0 0 - - -;
#X floatatom 687 201 5 0 0 0 - - -;
#X obj 629 244 *;
#X obj 627 219 r pit;
#X obj 671 244 *;
#X obj 668 220 r dur;
#X obj 620 271 soundGen;
#X obj 678 290 r lopass;
#X obj 678 267 r attack;
#X obj 753 173 unpack f f;
#X floatatom 752 200 5 0 0 0 - - -;
#X floatatom 806 201 5 0 0 0 - - -;
#X obj 748 244 *;
#X obj 746 219 r pit;
#X obj 790 244 *;
#X obj 787 220 r dur;
#X obj 739 271 soundGen;
#X obj 797 290 r lopass;
#X obj 797 267 r attack;
#X obj 868 170 unpack f f;
#X floatatom 867 197 5 0 0 0 - - -;
#X floatatom 921 198 5 0 0 0 - - -;
#X obj 863 241 *;
#X obj 861 216 r pit;
#X obj 905 241 *;
#X obj 902 217 r dur;
#X obj 854 268 soundGen;
#X obj 912 287 r lopass;
#X obj 912 264 r attack;
#X obj 740 453 unpack f f;
#X floatatom 739 480 5 0 0 0 - - -;
#X floatatom 793 481 5 0 0 0 - - -;
#X obj 735 524 *;
#X obj 733 499 r pit;
#X obj 777 524 *;
#X obj 774 500 r dur;
#X obj 726 551 soundGen;
#X obj 784 570 r lopass;
#X obj 784 547 r attack;
#X obj 857 455 unpack f f;
#X floatatom 856 482 5 0 0 0 - - -;
#X floatatom 910 483 5 0 0 0 - - -;
#X obj 852 526 *;
#X obj 850 501 r pit;
#X obj 894 526 *;
#X obj 891 502 r dur;
#X obj 843 553 soundGen;
#X obj 901 572 r lopass;
#X obj 901 549 r attack;
#X obj 976 455 unpack f f;
#X floatatom 975 482 5 0 0 0 - - -;
#X floatatom 1029 483 5 0 0 0 - - -;
#X obj 971 526 *;
#X obj 969 501 r pit;
#X obj 1013 526 *;
#X obj 1010 502 r dur;
#X obj 962 553 soundGen;
#X obj 1020 572 r lopass;
#X obj 1020 549 r attack;
#X obj 1091 452 unpack f f;
#X floatatom 1090 479 5 0 0 0 - - -;
#X floatatom 1144 480 5 0 0 0 - - -;
#X obj 1086 523 *;
#X obj 1084 498 r pit;
#X obj 1128 523 *;
#X obj 1125 499 r dur;
#X obj 1077 550 soundGen;
#X obj 1135 569 r lopass;
#X obj 1135 546 r attack;
#X obj 1241 449 unpack f f;
#X floatatom 1240 476 5 0 0 0 - - -;
#X floatatom 1294 477 5 0 0 0 - - -;
#X obj 1236 520 *;
#X obj 1234 495 r pit;
#X obj 1278 520 *;
#X obj 1275 496 r dur;
#X obj 1227 547 soundGen;
#X obj 1285 566 r lopass;
#X obj 1285 543 r attack;
#X obj 1358 451 unpack f f;
#X floatatom 1357 478 5 0 0 0 - - -;
#X floatatom 1411 479 5 0 0 0 - - -;
#X obj 1353 522 *;
#X obj 1351 497 r pit;
#X obj 1395 522 *;
#X obj 1392 498 r dur;
#X obj 1344 549 soundGen;
#X obj 1402 568 r lopass;
#X obj 1402 545 r attack;
#X obj 1477 451 unpack f f;
#X floatatom 1476 478 5 0 0 0 - - -;
#X floatatom 1530 479 5 0 0 0 - - -;
#X obj 1472 522 *;
#X obj 1470 497 r pit;
#X obj 1514 522 *;
#X obj 1511 498 r dur;
#X obj 1463 549 soundGen;
#X obj 1521 568 r lopass;
#X obj 1521 545 r attack;
#X obj 1592 448 unpack f f;
#X floatatom 1591 475 5 0 0 0 - - -;
#X floatatom 1645 476 5 0 0 0 - - -;
#X obj 1587 519 *;
#X obj 1585 494 r pit;
#X obj 1629 519 *;
#X obj 1626 495 r dur;
#X obj 1578 546 soundGen;
#X obj 1636 565 r lopass;
#X obj 1636 542 r attack;
#X floatatom 832 66 5 0 0 0 - - -;
#X floatatom 832 84 5 0 0 0 - - -;
#X obj 703 77 s attack;
#X obj 762 80 s lopass;
#X text 867 67 main attack;
#X text 867 85 lopass;
#X obj 21 32 inlet;
#X obj 591 29 inlet;
#X obj 637 39 inlet;
#X obj 688 37 inlet;
#X obj 749 34 inlet;
#X obj 290 752 outlet~;
#X obj 350 746 outlet~;
#X connect 0 0 1 0;
#X connect 0 0 2 0;
#X connect 0 0 3 0;
#X connect 0 0 4 0;
#X connect 0 0 5 0;
#X connect 0 0 6 0;
#X connect 0 0 7 0;
#X connect 0 0 8 0;
#X connect 0 0 9 0;
#X connect 0 0 10 0;
#X connect 0 0 11 0;
#X connect 0 0 12 0;
#X connect 0 0 13 0;
#X connect 0 0 14 0;
#X connect 0 0 15 0;
#X connect 0 0 16 0;
#X connect 1 0 39 0;
#X connect 2 0 53 0;
#X connect 3 0 63 0;
#X connect 4 0 73 0;
#X connect 5 0 83 0;
#X connect 6 0 93 0;
#X connect 7 0 103 0;
#X connect 8 0 113 0;
#X connect 9 0 123 0;
#X connect 10 0 133 0;
#X connect 11 0 143 0;
#X connect 12 0 153 0;
#X connect 13 0 163 0;
#X connect 14 0 173 0;
#X connect 15 0 183 0;
#X connect 16 0 193 0;
#X connect 17 0 19 0;
#X connect 18 0 19 1;
#X connect 19 0 29 0;
#X connect 19 0 32 0;
#X connect 20 0 22 0;
#X connect 21 0 22 1;
#X connect 22 0 29 1;
#X connect 22 0 32 1;
#X connect 23 0 25 0;
#X connect 24 0 25 1;
#X connect 25 0 30 0;
#X connect 25 0 31 0;
#X connect 26 0 28 0;
#X connect 27 0 28 1;
#X connect 28 0 30 1;
#X connect 28 0 31 1;
#X connect 29 0 34 0;
#X connect 30 0 33 0;
#X connect 31 0 34 1;
#X connect 32 0 33 1;
#X connect 33 0 36 0;
#X connect 34 0 35 0;
#X connect 35 0 214 0;
#X connect 36 0 215 0;
#X connect 37 0 46 0;
#X connect 39 0 40 0;
#X connect 39 1 41 0;
#X connect 40 0 42 0;
#X connect 41 0 44 0;
#X connect 42 0 50 0;
#X connect 43 0 42 1;
#X connect 44 0 50 3;
#X connect 45 0 44 1;
#X connect 48 0 47 0;
#X connect 50 0 17 0;
#X connect 51 0 50 4;
#X connect 52 0 50 2;
#X connect 53 0 54 0;
#X connect 53 1 55 0;
#X connect 54 0 56 0;
#X connect 55 0 58 0;
#X connect 56 0 60 0;
#X connect 57 0 56 1;
#X connect 58 0 60 3;
#X connect 59 0 58 1;
#X connect 60 0 17 1;
#X connect 61 0 60 4;
#X connect 62 0 60 2;
#X connect 63 0 64 0;
#X connect 63 1 65 0;
#X connect 64 0 66 0;
#X connect 65 0 68 0;
#X connect 66 0 70 0;
#X connect 67 0 66 1;
#X connect 68 0 70 3;
#X connect 69 0 68 1;
#X connect 70 0 18 0;
#X connect 71 0 70 4;
#X connect 72 0 70 2;
#X connect 73 0 74 0;
#X connect 73 1 75 0;
#X connect 74 0 76 0;
#X connect 75 0 78 0;
#X connect 76 0 80 0;
#X connect 77 0 76 1;
#X connect 78 0 80 3;
#X connect 79 0 78 1;
#X connect 80 0 18 1;
#X connect 81 0 80 4;
#X connect 82 0 80 2;
#X connect 83 0 84 0;
#X connect 83 1 85 0;
#X connect 84 0 86 0;
#X connect 85 0 88 0;
#X connect 86 0 90 0;
#X connect 87 0 86 1;
#X connect 88 0 90 3;
#X connect 89 0 88 1;
#X connect 90 0 20 0;
#X connect 91 0 90 4;
#X connect 92 0 90 2;
#X connect 93 0 94 0;
#X connect 93 1 95 0;
#X connect 94 0 96 0;
#X connect 95 0 98 0;
#X connect 96 0 100 0;
#X connect 97 0 96 1;
#X connect 98 0 100 3;
#X connect 99 0 98 1;
#X connect 100 0 20 1;
#X connect 101 0 100 4;
#X connect 102 0 100 2;
#X connect 103 0 104 0;
#X connect 103 1 105 0;
#X connect 104 0 106 0;
#X connect 105 0 108 0;
#X connect 106 0 110 0;
#X connect 107 0 106 1;
#X connect 108 0 110 3;
#X connect 109 0 108 1;
#X connect 110 0 21 0;
#X connect 111 0 110 4;
#X connect 112 0 110 2;
#X connect 113 0 114 0;
#X connect 113 1 115 0;
#X connect 114 0 116 0;
#X connect 115 0 118 0;
#X connect 116 0 120 0;
#X connect 117 0 116 1;
#X connect 118 0 120 3;
#X connect 119 0 118 1;
#X connect 120 0 21 1;
#X connect 121 0 120 4;
#X connect 122 0 120 2;
#X connect 123 0 124 0;
#X connect 123 1 125 0;
#X connect 124 0 126 0;
#X connect 125 0 128 0;
#X connect 126 0 130 0;
#X connect 127 0 126 1;
#X connect 128 0 130 3;
#X connect 129 0 128 1;
#X connect 130 0 23 0;
#X connect 131 0 130 4;
#X connect 132 0 130 2;
#X connect 133 0 134 0;
#X connect 133 1 135 0;
#X connect 134 0 136 0;
#X connect 135 0 138 0;
#X connect 136 0 140 0;
#X connect 137 0 136 1;
#X connect 138 0 140 3;
#X connect 139 0 138 1;
#X connect 140 0 23 1;
#X connect 141 0 140 4;
#X connect 142 0 140 2;
#X connect 143 0 144 0;
#X connect 143 1 145 0;
#X connect 144 0 146 0;
#X connect 145 0 148 0;
#X connect 146 0 150 0;
#X connect 147 0 146 1;
#X connect 148 0 150 3;
#X connect 149 0 148 1;
#X connect 150 0 24 0;
#X connect 151 0 150 4;
#X connect 152 0 150 2;
#X connect 153 0 154 0;
#X connect 153 1 155 0;
#X connect 154 0 156 0;
#X connect 155 0 158 0;
#X connect 156 0 160 0;
#X connect 157 0 156 1;
#X connect 158 0 160 3;
#X connect 159 0 158 1;
#X connect 160 0 24 1;
#X connect 161 0 160 4;
#X connect 162 0 160 2;
#X connect 163 0 164 0;
#X connect 163 1 165 0;
#X connect 164 0 166 0;
#X connect 165 0 168 0;
#X connect 166 0 170 0;
#X connect 167 0 166 1;
#X connect 168 0 170 3;
#X connect 169 0 168 1;
#X connect 170 0 26 0;
#X connect 171 0 170 4;
#X connect 172 0 170 2;
#X connect 173 0 174 0;
#X connect 173 1 175 0;
#X connect 174 0 176 0;
#X connect 175 0 178 0;
#X connect 176 0 180 0;
#X connect 177 0 176 1;
#X connect 178 0 180 3;
#X connect 179 0 178 1;
#X connect 180 0 26 1;
#X connect 181 0 180 4;
#X connect 182 0 180 2;
#X connect 183 0 184 0;
#X connect 183 1 185 0;
#X connect 184 0 186 0;
#X connect 185 0 188 0;
#X connect 186 0 190 0;
#X connect 187 0 186 1;
#X connect 188 0 190 3;
#X connect 189 0 188 1;
#X connect 190 0 27 0;
#X connect 191 0 190 4;
#X connect 192 0 190 2;
#X connect 193 0 194 0;
#X connect 193 1 195 0;
#X connect 194 0 196 0;
#X connect 195 0 198 0;
#X connect 196 0 200 0;
#X connect 197 0 196 1;
#X connect 198 0 200 3;
#X connect 199 0 198 1;
#X connect 200 0 27 1;
#X connect 201 0 200 4;
#X connect 202 0 200 2;
#X connect 203 0 205 0;
#X connect 204 0 206 0;
#X connect 209 0 0 0;
#X connect 210 0 37 0;
#X connect 211 0 48 0;
#X connect 212 0 203 0;
#X connect 213 0 204 0;
