#N canvas 621 104 503 823 10;
#X obj 20 -14 dumpOSC 12000;
#X obj 20 10 route /msg;
#X obj 9 59 route A;
#X obj 61 60 route B;
#X floatatom 235 81 5 0 0 0 - - -;
#X floatatom 46 140 5 0 0 0 - - -;
#X obj 56 622 *~;
#X obj 89 622 *~;
#X obj 33 299 +~;
#X obj 33 276 phasor~;
#X obj 237 286 osc~;
#X obj 134 246 osc~;
#X obj 115 552 lop~;
#X obj 158 551 hip~;
#X floatatom 161 511 5 0 0 0 - - -;
#X floatatom 208 523 5 0 0 0 - - -;
#X floatatom 347 434 5 0 0 0 - - -;
#X obj 333 457 / 100;
#X obj 348 256 f;
#X obj 381 256 + 1;
#X obj 369 206 tgl 15 0 empty empty empty 17 7 0 10 -262144 -1 -1 1
1;
#X obj 354 304 sin;
#X obj 350 356 / 2;
#X obj 348 230 metro 40;
#X obj 191 151 f;
#X obj 179 80 tgl 15 0 empty empty empty 17 7 0 10 -262144 -1 -1 1
1;
#X obj 198 183 -;
#X obj 272 116 t b f;
#X obj 164 339 noise~;
#X obj 163 382 lop~;
#X obj 209 380 hip~;
#X obj 142 441 +~;
#X obj 352 328 + 2;
#X obj 238 239 smoother 7;
#X obj 239 260 + 3.14;
#X obj 174 451 phasor~ 3.33422;
#X obj 113 335 *~;
#X obj 105 446 +~;
#X msg 158 16 bang;
#X obj 297 -14 loadbang;
#X obj 158 104 metro 30;
#X obj 111 60 route C;
#X msg 341 599 1;
#X msg 372 602 0;
#X floatatom 329 636 5 0 0 0 - - -;
#X obj 346 517 sel 1;
#X obj 241 668 *~;
#X obj 366 637 bng 15 250 50 0 empty empty empty 17 7 0 10 -262144
-1 -1;
#X obj 17 108 + 20;
#X obj 46 666 /~;
#X obj 361 71 i;
#X floatatom 397 130 5 0 0 0 - - -;
#X obj 400 106 * 10;
#X obj 17 194 / 1.2;
#X obj 26 253 + 3.2;
#X obj 353 283 / 3.2;
#X msg 350 412 621;
#X obj 197 205 * 50;
#X obj 248 608 lop~ 140;
#X obj 354 380 * 150;
#X msg 157 489 416;
#X obj 103 682 /~;
#X obj 241 584 osc~ 200;
#X obj 231 691 *~;
#X obj 187 626 lop~ 140;
#X obj 326 691 smoother 50;
#X obj 368 567 delay 50;
#X obj 172 604 osc~ 220;
#X obj 404 34 / 12;
#X text 385 436 << tempo;
#X text 387 635 << edge;
#X text 243 523 << sin mod;
#X obj 93 738 dac~ 1 2;
#X text 386 70 << inval round;
#X text 79 140 << main vol;
#X text 338 -39 // SONIFIER #0.11;
#X obj 105 356 *~ 0.02;
#X obj 125 408 *~ 0.04;
#X obj 188 408 *~ 0.04;
#X obj 131 479 /~;
#X obj 119 516 -~;
#X obj 263 350 - 20;
#X connect 0 0 1 0;
#X connect 1 0 2 0;
#X connect 1 0 3 0;
#X connect 1 0 41 0;
#X connect 2 0 48 0;
#X connect 3 0 5 0;
#X connect 4 0 68 0;
#X connect 5 0 7 1;
#X connect 5 0 6 1;
#X connect 6 0 49 0;
#X connect 7 0 61 0;
#X connect 8 0 36 0;
#X connect 9 0 8 0;
#X connect 10 0 36 1;
#X connect 11 0 8 1;
#X connect 12 0 6 0;
#X connect 12 0 7 0;
#X connect 13 0 7 0;
#X connect 13 0 6 0;
#X connect 14 0 12 1;
#X connect 15 0 13 1;
#X connect 15 0 30 1;
#X connect 15 0 81 0;
#X connect 16 0 17 0;
#X connect 17 0 35 0;
#X connect 18 0 19 0;
#X connect 18 0 55 0;
#X connect 19 0 18 1;
#X connect 20 0 23 0;
#X connect 21 0 32 0;
#X connect 22 0 59 0;
#X connect 23 0 18 0;
#X connect 24 0 26 1;
#X connect 25 0 40 0;
#X connect 26 0 57 0;
#X connect 27 1 24 1;
#X connect 28 0 29 0;
#X connect 28 0 30 0;
#X connect 29 0 77 0;
#X connect 30 0 78 0;
#X connect 31 0 37 1;
#X connect 32 0 22 0;
#X connect 33 0 34 0;
#X connect 34 0 10 0;
#X connect 35 0 79 1;
#X connect 36 0 76 0;
#X connect 37 0 79 0;
#X connect 37 0 80 0;
#X connect 38 0 40 0;
#X connect 39 0 38 0;
#X connect 39 0 56 0;
#X connect 39 0 60 0;
#X connect 39 0 20 0;
#X connect 39 0 25 0;
#X connect 40 0 24 0;
#X connect 41 0 45 0;
#X connect 42 0 44 0;
#X connect 42 0 47 0;
#X connect 43 0 44 0;
#X connect 44 0 65 0;
#X connect 45 0 42 0;
#X connect 45 0 66 0;
#X connect 46 0 49 1;
#X connect 48 0 4 0;
#X connect 49 0 72 0;
#X connect 50 0 52 0;
#X connect 51 0 27 0;
#X connect 51 0 26 0;
#X connect 51 0 53 0;
#X connect 52 0 51 0;
#X connect 53 0 54 0;
#X connect 54 0 9 0;
#X connect 55 0 21 0;
#X connect 56 0 16 0;
#X connect 57 0 11 0;
#X connect 57 0 33 0;
#X connect 58 0 46 0;
#X connect 59 0 15 0;
#X connect 60 0 14 0;
#X connect 61 0 72 1;
#X connect 62 0 58 0;
#X connect 63 0 61 1;
#X connect 64 0 63 0;
#X connect 65 0 46 1;
#X connect 65 0 63 1;
#X connect 66 0 43 0;
#X connect 67 0 64 0;
#X connect 68 0 50 0;
#X connect 76 0 37 0;
#X connect 77 0 31 1;
#X connect 78 0 31 0;
#X connect 79 0 80 1;
#X connect 80 0 12 0;
#X connect 80 0 13 0;
#X connect 81 0 29 1;
