#N canvas 715 46 881 918 10;
#X floatatom 23 106 5 0 0 0 - - -;
#X floatatom 82 117 5 0 0 0 - - -;
#X floatatom 123 114 5 0 0 0 - - -;
#X obj 325 701 dac~ 1 2;
#X obj 294 44 vsl 10 128 0 1 0 0 empty empty empty 0 -9 0 10 -258113
-1 -1 12686 1;
#X obj 308 45 vsl 10 128 0 1 0 0 empty empty empty 0 -9 0 10 -258113
-1 -1 5486 1;
#X obj 322 45 vsl 10 128 0 1 0 0 empty empty empty 0 -9 0 10 -258113
-1 -1 3964 1;
#X obj 7 197 line 100;
#X obj 65 197 line 100;
#X obj 126 195 line 100;
#X obj 231 559 +~;
#X obj 387 58 bng 15 250 50 0 empty empty empty 0 -6 0 8 -262144 -1
-1;
#X obj 409 113 pddp/dsp;
#N canvas 195 346 450 300 sndUnit 0;
#X obj 95 -76 *~;
#N canvas 136 596 450 300 sndGen 0;
#X obj 113 -36 tgl 15 0 empty empty empty 17 7 0 10 -262144 -1 -1 0
1;
#X obj 108 -8 metro 40;
#X obj 223 0 + 12;
#X obj 223 -21 * 200;
#X obj 88 -68 loadbang;
#X obj 200 -89 inlet;
#X obj 115 70 outlet~;
#X obj 112 41 *~ 10;
#X obj 112 18 ead~ 15 10;
#X connect 0 0 1 0;
#X connect 1 0 8 0;
#X connect 2 0 1 1;
#X connect 3 0 2 0;
#X connect 4 0 1 0;
#X connect 5 0 3 0;
#X connect 7 0 6 0;
#X connect 8 0 7 0;
#X restore 154 -104 pd sndGen;
#X obj 97 -170 inlet;
#X obj 78 -26 outlet~;
#X obj 174 -158 inlet;
#N canvas 117 342 450 300 sndUnit 0;
#X obj 42 -137 noise~;
#X obj 109 -131 * 4000;
#X obj 95 -76 *~;
#X obj 83 -106 bp~ 10 200;
#N canvas 48 428 450 300 sndGen 0;
#X obj 113 -36 tgl 15 0 empty empty empty 17 7 0 10 -262144 -1 -1 0
1;
#X obj 112 41 *~ 10;
#X obj 108 -8 metro 40;
#X obj 223 0 + 12;
#X obj 223 -21 * 200;
#X obj 88 -68 loadbang;
#X obj 200 -89 inlet;
#X obj 115 70 outlet~;
#X obj 112 18 ead~ 15 10;
#X connect 0 0 2 0;
#X connect 1 0 7 0;
#X connect 2 0 8 0;
#X connect 3 0 2 1;
#X connect 4 0 3 0;
#X connect 5 0 2 0;
#X connect 6 0 4 0;
#X connect 8 0 1 0;
#X restore 154 -104 pd sndGen;
#X obj 97 -170 inlet;
#X obj 78 -26 outlet~;
#X obj 174 -158 inlet;
#X connect 0 0 3 0;
#X connect 1 0 3 1;
#X connect 2 0 6 0;
#X connect 3 0 2 0;
#X connect 4 0 2 1;
#X connect 5 0 1 0;
#X connect 5 0 4 0;
#X connect 7 0 1 1;
#X restore 55 341 pd sndUnit;
#X obj 24 -161 tgl 15 0 empty empty empty 17 7 0 10 -262144 -1 -1 0
1;
#X obj 74 -109 bp~ 50 10;
#X obj 30 -132 noise~;
#X obj 109 -131 * 600;
#X connect 0 0 3 0;
#X connect 1 0 0 1;
#X connect 2 0 1 0;
#X connect 2 0 9 0;
#X connect 4 0 9 1;
#X connect 6 0 8 0;
#X connect 7 0 0 0;
#X connect 8 0 7 0;
#X connect 9 0 7 1;
#X restore 502 273 pd sndUnit;
#X obj 415 186 loadbang;
#X obj 291 633 freeverb~;
#X msg 481 690 roomsize \$1;
#X msg 438 496 damping \$1;
#X msg 438 518 width \$1;
#X msg 438 540 wet \$1;
#X msg 438 562 dry \$1;
#X text 499 561 - level of unprocessed signal \, between 0 and 1 (default:
0);
#X text 503 540 - level of reverbed signal \, between 0 and 1 (default:
0.3);
#X text 507 519 - stereo width of reverb (default: 1);
#X msg 375 508;
#X floatatom 398 444 5 0 0 0 - - -;
#X msg 449 447 0.9;
#X obj 275 560 +~;
#X floatatom 518 239 5 0 0 0 - - -;
#X floatatom 589 239 5 0 0 0 - - -;
#X floatatom 667 237 5 0 0 0 - - -;
#N canvas 132 277 450 300 sndUnit 0;
#X obj 95 -76 *~;
#N canvas 136 596 450 300 sndGen 0;
#X obj 113 -36 tgl 15 0 empty empty empty 17 7 0 10 -262144 -1 -1 0
1;
#X obj 108 -8 metro 40;
#X obj 223 0 + 12;
#X obj 223 -21 * 200;
#X obj 88 -68 loadbang;
#X obj 200 -89 inlet;
#X obj 115 70 outlet~;
#X obj 112 41 *~ 10;
#X obj 112 18 ead~ 15 10;
#X connect 0 0 1 0;
#X connect 1 0 8 0;
#X connect 2 0 1 1;
#X connect 3 0 2 0;
#X connect 4 0 1 0;
#X connect 5 0 3 0;
#X connect 7 0 6 0;
#X connect 8 0 7 0;
#X restore 154 -104 pd sndGen;
#X obj 97 -170 inlet;
#X obj 78 -26 outlet~;
#X obj 174 -158 inlet;
#N canvas 117 342 450 300 sndUnit 0;
#X obj 42 -137 noise~;
#X obj 109 -131 * 4000;
#X obj 95 -76 *~;
#X obj 83 -106 bp~ 10 200;
#N canvas 48 428 450 300 sndGen 0;
#X obj 113 -36 tgl 15 0 empty empty empty 17 7 0 10 -262144 -1 -1 0
1;
#X obj 112 41 *~ 10;
#X obj 108 -8 metro 40;
#X obj 223 0 + 12;
#X obj 223 -21 * 200;
#X obj 88 -68 loadbang;
#X obj 200 -89 inlet;
#X obj 115 70 outlet~;
#X obj 112 18 ead~ 15 10;
#X connect 0 0 2 0;
#X connect 1 0 7 0;
#X connect 2 0 8 0;
#X connect 3 0 2 1;
#X connect 4 0 3 0;
#X connect 5 0 2 0;
#X connect 6 0 4 0;
#X connect 8 0 1 0;
#X restore 154 -104 pd sndGen;
#X obj 97 -170 inlet;
#X obj 78 -26 outlet~;
#X obj 174 -158 inlet;
#X connect 0 0 3 0;
#X connect 1 0 3 1;
#X connect 2 0 6 0;
#X connect 3 0 2 0;
#X connect 4 0 2 1;
#X connect 5 0 1 0;
#X connect 5 0 4 0;
#X connect 7 0 1 1;
#X restore 55 341 pd sndUnit;
#X obj 109 -131 * 60;
#X obj 24 -161 tgl 15 0 empty empty empty 17 7 0 10 -262144 -1 -1 0
1;
#X obj 74 -109 bp~ 50 10;
#X obj 30 -132 noise~;
#X connect 0 0 3 0;
#X connect 1 0 0 1;
#X connect 2 0 1 0;
#X connect 2 0 6 0;
#X connect 4 0 6 1;
#X connect 6 0 8 1;
#X connect 7 0 9 0;
#X connect 8 0 0 0;
#X connect 9 0 8 0;
#X restore 589 275 pd sndUnit;
#N canvas 110 235 450 300 sndUnit 0;
#X obj 95 -76 *~;
#N canvas 136 596 450 300 sndGen 0;
#X obj 113 -36 tgl 15 0 empty empty empty 17 7 0 10 -262144 -1 -1 0
1;
#X obj 108 -8 metro 40;
#X obj 223 0 + 12;
#X obj 223 -21 * 200;
#X obj 88 -68 loadbang;
#X obj 200 -89 inlet;
#X obj 115 70 outlet~;
#X obj 112 41 *~ 10;
#X obj 112 18 ead~ 15 10;
#X connect 0 0 1 0;
#X connect 1 0 8 0;
#X connect 2 0 1 1;
#X connect 3 0 2 0;
#X connect 4 0 1 0;
#X connect 5 0 3 0;
#X connect 7 0 6 0;
#X connect 8 0 7 0;
#X restore 154 -104 pd sndGen;
#X obj 97 -170 inlet;
#X obj 78 -26 outlet~;
#X obj 174 -158 inlet;
#N canvas 117 342 450 300 sndUnit 0;
#X obj 42 -137 noise~;
#X obj 109 -131 * 4000;
#X obj 95 -76 *~;
#X obj 83 -106 bp~ 10 200;
#N canvas 48 428 450 300 sndGen 0;
#X obj 113 -36 tgl 15 0 empty empty empty 17 7 0 10 -262144 -1 -1 0
1;
#X obj 112 41 *~ 10;
#X obj 108 -8 metro 40;
#X obj 223 0 + 12;
#X obj 223 -21 * 200;
#X obj 88 -68 loadbang;
#X obj 200 -89 inlet;
#X obj 115 70 outlet~;
#X obj 112 18 ead~ 15 10;
#X connect 0 0 2 0;
#X connect 1 0 7 0;
#X connect 2 0 8 0;
#X connect 3 0 2 1;
#X connect 4 0 3 0;
#X connect 5 0 2 0;
#X connect 6 0 4 0;
#X connect 8 0 1 0;
#X restore 154 -104 pd sndGen;
#X obj 97 -170 inlet;
#X obj 78 -26 outlet~;
#X obj 174 -158 inlet;
#X connect 0 0 3 0;
#X connect 1 0 3 1;
#X connect 2 0 6 0;
#X connect 3 0 2 0;
#X connect 4 0 2 1;
#X connect 5 0 1 0;
#X connect 5 0 4 0;
#X connect 7 0 1 1;
#X restore 55 341 pd sndUnit;
#X obj 109 -131 * 60;
#X obj 24 -161 tgl 15 0 empty empty empty 17 7 0 10 -262144 -1 -1 0
1;
#X obj 74 -109 bp~ 50 10;
#X obj 30 -132 phasor~ 300;
#X connect 0 0 3 0;
#X connect 1 0 0 1;
#X connect 2 0 1 0;
#X connect 2 0 6 0;
#X connect 4 0 6 1;
#X connect 4 0 9 1;
#X connect 6 0 8 1;
#X connect 7 0 9 0;
#X connect 8 0 0 0;
#X connect 9 0 8 0;
#X restore 674 276 pd sndUnit;
#X obj 78 312 metro 40;
#X obj 52 383 *~;
#X obj 216 318 metro 40;
#X obj 204 390 *~;
#X obj 377 308 metro 40;
#X obj 318 386 *~;
#X obj 138 237 tgl 15 0 empty empty empty 17 7 0 10 -262144 -1 -1 1
1;
#X obj 15 246 * 1800;
#X obj 229 366 ead~ 2 5;
#X obj 237 341 random 50;
#X obj 284 318 phasor~ 180;
#X obj 117 456 lop~ 300;
#X obj 176 456 lop~ 300;
#X obj 234 454 lop~ 300;
#X obj 205 419 random 600;
#X obj 298 430 random 600;
#X obj 358 237 * 2000;
#X obj 152 345 phasor~ 180;
#X obj 211 283 + 20;
#X obj 359 267 + 20;
#X obj 286 293 * 880;
#X obj 154 320 * 883;
#X obj 18 297 phasor~ 879;
#X obj 493 444 *~;
#X obj 642 463 phasor~ 180;
#X obj 477 405 ead~ 2 5;
#X obj 435 373 random 10;
#X obj 571 417 random 300;
#X obj 532 308 tgl 15 0 empty empty empty 17 7 0 10 -262144 -1 -1 0
1;
#X obj 106 408 random 1600;
#X obj 677 378 noise~ 40;
#X obj 735 416 +~;
#X obj 582 316 metro 49;
#X obj 542 454 lop~ 300;
#X obj 523 378 random 500;
#X obj 603 378 phasor~ 800;
#X obj 676 330 * 50;
#X obj 676 351 + 10;
#X obj 78 249 * 2000;
#X obj 77 338 ead~ 15 1000;
#X obj 349 360 ead~ 7 1500;
#X obj 389 333 random 50;
#X obj 447 305 / 3;
#X msg 403 416 2;
#X msg 148 291 400;
#X obj 210 253 * 6000;
#X obj 103 272 + 40;
#X obj 20 41 route /msg;
#X obj 145 78 print;
#X obj 14 19 dumpOSC 12000;
#X obj 239 598 *~ 2;
#X obj 303 598 *~ 2;
#X obj 25 78 unpack f f f;
#X obj 25 137 + 150;
#X obj 23 158 / 300;
#X obj 65 137 + 150;
#X obj 63 158 / 300;
#X obj 117 143 + 150;
#X obj 115 164 / 300;
#X connect 0 0 86 0;
#X connect 1 0 88 0;
#X connect 2 0 90 0;
#X connect 7 0 4 0;
#X connect 7 0 40 0;
#X connect 7 0 71 0;
#X connect 8 0 5 0;
#X connect 8 0 78 0;
#X connect 9 0 6 0;
#X connect 9 0 49 0;
#X connect 9 0 53 0;
#X connect 10 0 83 0;
#X connect 14 0 39 0;
#X connect 14 0 26 0;
#X connect 14 0 77 0;
#X connect 15 0 3 0;
#X connect 15 1 3 1;
#X connect 17 0 15 0;
#X connect 18 0 15 0;
#X connect 25 0 18 0;
#X connect 26 0 17 0;
#X connect 27 0 84 0;
#X connect 28 0 13 1;
#X connect 29 0 31 1;
#X connect 30 0 32 1;
#X connect 33 0 62 0;
#X connect 33 0 72 0;
#X connect 34 0 44 0;
#X connect 35 0 41 0;
#X connect 35 0 42 0;
#X connect 35 0 47 0;
#X connect 36 0 45 0;
#X connect 37 0 48 0;
#X connect 37 0 73 0;
#X connect 37 0 74 0;
#X connect 38 0 46 0;
#X connect 39 0 33 0;
#X connect 39 0 35 0;
#X connect 39 0 37 0;
#X connect 40 0 55 0;
#X connect 41 0 36 1;
#X connect 42 0 41 2;
#X connect 43 0 38 0;
#X connect 44 0 10 0;
#X connect 45 0 10 1;
#X connect 45 0 27 0;
#X connect 46 0 27 1;
#X connect 47 0 45 1;
#X connect 48 0 46 1;
#X connect 49 0 52 0;
#X connect 50 0 36 0;
#X connect 51 0 35 1;
#X connect 51 0 37 1;
#X connect 52 0 73 2;
#X connect 52 0 75 0;
#X connect 53 0 43 0;
#X connect 54 0 50 0;
#X connect 55 0 34 0;
#X connect 56 0 66 0;
#X connect 58 0 56 1;
#X connect 59 0 58 1;
#X connect 60 0 66 1;
#X connect 61 0 65 0;
#X connect 62 0 44 1;
#X connect 63 0 64 1;
#X connect 64 0 56 0;
#X connect 65 0 58 0;
#X connect 65 0 59 0;
#X connect 65 0 60 0;
#X connect 65 0 67 0;
#X connect 67 0 58 2;
#X connect 68 0 64 0;
#X connect 69 0 70 0;
#X connect 70 0 65 1;
#X connect 71 0 62 1;
#X connect 71 0 79 0;
#X connect 72 0 34 1;
#X connect 73 0 38 1;
#X connect 74 0 73 1;
#X connect 75 0 74 1;
#X connect 77 0 50 0;
#X connect 78 0 51 0;
#X connect 79 0 33 1;
#X connect 79 0 72 2;
#X connect 80 0 85 0;
#X connect 82 0 80 0;
#X connect 83 0 15 0;
#X connect 84 0 15 1;
#X connect 85 0 0 0;
#X connect 85 1 1 0;
#X connect 85 2 2 0;
#X connect 86 0 87 0;
#X connect 87 0 7 0;
#X connect 88 0 89 0;
#X connect 89 0 8 0;
#X connect 90 0 91 0;
#X connect 91 0 9 0;
